<svg xmlns="http://www.w3.org/2000/svg" width="480" height="320" viewBox="0 0 480 320" fill="none">
  <rect width="480" height="320" rx="8" fill="#f5f3f0"/>
  <!-- ベッド -->
  <rect x="120" y="170" width="240" height="16" rx="4" stroke="#c4bdb5" stroke-width="2"/>
  <rect x="125" y="155" width="60" height="20" rx="4" stroke="#c4bdb5" stroke-width="2"/>
  <line x1="150" y1="186" x2="150" y2="230" stroke="#c4bdb5" stroke-width="2"/>
  <line x1="340" y1="186" x2="340" y2="230" stroke="#c4bdb5" stroke-width="2"/>
  <!-- カーテン（左） -->
  <path d="M60 60 Q70 120 60 240" stroke="#a3b5a5" stroke-width="2"/>
  <path d="M75 60 Q85 110 75 240" stroke="#a3b5a5" stroke-width="2"/>
  <line x1="50" y1="60" x2="90" y2="60" stroke="#a3b5a5" stroke-width="2"/>
  <!-- カーテン（右） -->
  <path d="M420 60 Q410 120 420 240" stroke="#a3b5a5" stroke-width="2"/>
  <path d="M405 60 Q395 110 405 240" stroke="#a3b5a5" stroke-width="2"/>
  <line x1="395" y1="60" x2="435" y2="60" stroke="#a3b5a5" stroke-width="2"/>
  <!-- 照明 -->
  <line x1="240" y1="30" x2="240" y2="70" stroke="#c4bdb5" stroke-width="1.5"/>
  <circle cx="240" cy="78" r="10" stroke="#c4bdb5" stroke-width="1.5"/>
  <!-- ラベル -->
  <text x="240" y="290" text-anchor="middle" font-family="system-ui, sans-serif" font-size="13" fill="#a3a09b">480 × 320 — 個室</text>
</svg>
